<svg version="1.0" xmlns="http://www.w3.org/2000/svg"
 width="32" height="32" viewBox="0 0 150.000000 150.000000"
 preserveAspectRatio="xMidYMid meet">
<g transform="translate(0.000000,150.000000) scale(0.100000,-0.100000)"
fill="#000000" stroke="none">
<path d="M645 1475 c-104 -82 -357 -167 -598 -200 l-47 -6 0 -42 c0 -174 71
-489 149 -661 l29 -64 45 9 c116 21 162 60 228 193 28 55 69 128 92 161 22 33
51 75 64 94 13 19 23 41 23 51 0 27 61 141 74 137 6 -2 18 -27 26 -55 8 -29
18 -52 23 -52 4 0 27 18 51 40 24 22 46 40 50 40 11 0 6 -60 -8 -95 l-15 -35
42 -29 c58 -40 87 -73 102 -118 12 -34 20 -41 86 -68 40 -16 74 -36 77 -43 6
-19 -24 -59 -67 -87 -27 -19 -60 -28 -119 -35 -105 -12 -138 -29 -151 -78 -6
-20 -17 -104 -25 -185 -16 -154 -35 -252 -60 -312 l-15 -35 88 0 89 0 63 47
c325 238 507 614 554 1143 l7 76 -113 18 c-198 31 -378 93 -505 172 -67 41
-76 44 -140 44 -57 -1 -74 -5 -99 -25z"/>
<path d="M231 405 c38 -69 123 -177 195 -248 75 -74 195 -162 213 -156 7 3
-19 24 -56 49 -117 77 -222 185 -356 370 -11 15 -9 9 4 -15z"/>
</g>
</svg>
